<svg width="121" height="24" viewBox="0 0 121 24" fill="none" xmlns="http://www.w3.org/2000/svg">
<path d="M8.98773 24C7.22053 24 5.65861 23.6251 4.30197 22.8843C2.94533 22.1346 1.89215 21.1171 1.13351 19.8319C0.374861 18.5288 0 17.0562 0 15.3871C0 14.0662 0.214206 12.8613 0.642618 11.7724C1.07103 10.6835 1.6601 9.73745 2.41874 8.9431C3.17739 8.14875 4.07884 7.52399 5.14095 7.08665C6.19413 6.64931 7.35441 6.4351 8.61287 6.4351C9.7196 6.4351 10.7549 6.64931 11.7189 7.07772C12.6828 7.50613 13.5128 8.08628 14.2179 8.81815C14.923 9.55002 15.4585 10.4247 15.8334 11.4422C16.2083 12.4596 16.3868 13.5575 16.36 14.7534L16.3243 16.1279H1.43697L0.705095 13.4414H13.0219L12.5132 13.9859V13.2808C12.4507 12.6203 12.2365 12.0402 11.8706 11.5403C11.5047 11.0405 11.0405 10.6478 10.4782 10.3533C9.91595 10.0677 9.29119 9.92488 8.60394 9.92488C7.55969 9.92488 6.67609 10.1302 5.96207 10.5318C5.24805 10.9334 4.71253 11.5225 4.3466 12.2722C3.98066 13.0309 3.80216 13.9769 3.80216 15.1015C3.80216 16.2261 4.03421 17.1365 4.4894 17.9487C4.94459 18.7609 5.59613 19.3856 6.44403 19.823C7.28301 20.2603 8.27371 20.4835 9.40722 20.4835C10.1926 20.4835 10.9245 20.3585 11.585 20.0997C12.2454 19.8408 12.9595 19.3856 13.727 18.7252L15.6817 21.4474C15.1015 21.9829 14.45 22.4381 13.7181 22.804C12.9862 23.1789 12.2097 23.4734 11.3975 23.6876C10.5853 23.9018 9.78208 24.0089 8.99665 24.0089L8.98773 24Z" fill="url(#paint0_linear_411_811)"/>
<path d="M20.1978 23.6787V6.81889H24.0357L24.0982 10.273L23.3663 10.6568C23.5805 9.88918 23.9911 9.19301 24.6158 8.55932C25.2317 7.93455 25.9725 7.42581 26.8204 7.04202C27.6772 6.65824 28.5519 6.46188 29.4444 6.46188C30.7207 6.46188 31.7917 6.72072 32.6575 7.22946C33.5232 7.7382 34.1748 8.50577 34.6121 9.53217C35.0495 10.5586 35.2637 11.8349 35.2637 13.37V23.6698H31.3276V13.6646C31.3276 12.8077 31.2116 12.1026 30.9795 11.5404C30.7475 10.9781 30.3816 10.5586 29.8907 10.2908C29.3998 10.0231 28.8018 9.89811 28.0967 9.92488C27.5255 9.92488 26.99 10.0141 26.5169 10.1926C26.035 10.3711 25.6244 10.63 25.2674 10.9602C24.9193 11.2904 24.6337 11.6653 24.4373 12.0937C24.2321 12.5221 24.1339 12.9862 24.1339 13.5039V23.6787H20.1978Z" fill="url(#paint1_linear_411_811)"/>
<path d="M46.4024 24C45.019 24 43.7605 23.6162 42.627 22.8486C41.4935 22.0811 40.592 21.0368 39.9048 19.7159C39.2265 18.3949 38.8784 16.8866 38.8784 15.2086C38.8784 13.5307 39.2175 12.0223 39.9048 10.7014C40.5831 9.38044 41.5113 8.34511 42.6895 7.59539C43.8587 6.84567 45.1885 6.47974 46.6612 6.47974C47.518 6.47974 48.2945 6.60469 48.9996 6.84567C49.7047 7.09558 50.3206 7.43474 50.8561 7.881C51.3916 8.32726 51.8289 8.84493 52.1859 9.41614C52.5429 9.98736 52.775 10.6121 52.9089 11.2726L52.0431 11.0495V6.8189H56.0059V23.6787H52.0074V19.6445L52.9357 19.4838C52.7839 20.064 52.5162 20.6173 52.1235 21.1618C51.7307 21.7062 51.2399 22.1882 50.6508 22.5987C50.0617 23.0182 49.4102 23.3485 48.6962 23.6073C47.9821 23.8661 47.2146 23.9911 46.4113 23.9911L46.4024 24ZM47.4913 20.5102C48.4106 20.5102 49.2228 20.2871 49.9189 19.8408C50.624 19.3946 51.1685 18.7698 51.5701 17.9665C51.9628 17.1633 52.1592 16.244 52.1592 15.1997C52.1592 14.1555 51.9628 13.2719 51.5701 12.4775C51.1774 11.6921 50.624 11.0673 49.9189 10.6211C49.2138 10.1748 48.4016 9.95166 47.4913 9.95166C46.5809 9.95166 45.7687 10.1748 45.0725 10.6211C44.3763 11.0673 43.8408 11.6921 43.457 12.4775C43.0733 13.2629 42.8769 14.1733 42.8769 15.1997C42.8769 16.2261 43.0733 17.1633 43.457 17.9665C43.8408 18.7698 44.3763 19.3946 45.0725 19.8408C45.7687 20.2871 46.572 20.5102 47.4913 20.5102Z" fill="url(#paint2_linear_411_811)"/>
<path d="M70.2506 24C69.5009 24 68.7691 23.884 68.055 23.6608C67.341 23.4377 66.6984 23.1343 66.1183 22.7505C65.5381 22.3667 65.0651 21.9383 64.6813 21.4563C64.2975 20.9743 64.0387 20.4924 63.9137 20.0015L64.8419 19.582L64.7438 23.6162H60.9327V0H64.8687V10.7192L64.1636 10.3979C64.2707 9.88918 64.5117 9.39829 64.8866 8.9431C65.2614 8.48791 65.7255 8.06843 66.2789 7.69357C66.8323 7.31871 67.4392 7.02417 68.0997 6.80104C68.7601 6.57791 69.4295 6.46188 70.1168 6.46188C71.6341 6.46188 72.9728 6.83674 74.1331 7.57754C75.2934 8.32726 76.2127 9.36259 76.8821 10.6835C77.5515 12.0045 77.8907 13.5128 77.8907 15.1908C77.8907 16.8687 77.5604 18.4128 76.9 19.7337C76.2395 21.0547 75.3291 22.0989 74.1688 22.8576C73.0085 23.6162 71.6965 23.9911 70.2506 23.9911V24ZM69.4206 20.5459C70.3131 20.5459 71.1164 20.3139 71.8215 19.8587C72.5266 19.4035 73.08 18.7698 73.4816 17.9665C73.8832 17.1633 74.0885 16.244 74.0885 15.1997C74.0885 14.1554 73.8921 13.2718 73.4994 12.4775C73.1067 11.6921 72.5534 11.0673 71.8483 10.621C71.1432 10.1748 70.331 9.95166 69.4206 9.95166C68.5102 9.95166 67.6891 10.1748 66.9929 10.621C66.2968 11.0673 65.7345 11.6921 65.3328 12.4775C64.9312 13.2629 64.7259 14.1733 64.7259 15.1997C64.7259 16.2261 64.9312 17.1633 65.3328 17.9665C65.7345 18.7698 66.2968 19.3946 66.9929 19.8587C67.698 20.3139 68.5102 20.5459 69.4206 20.5459Z" fill="url(#paint3_linear_411_811)"/>
<path d="M81.7999 23.6787V0H85.7717V23.6787H81.7999Z" fill="url(#paint4_linear_411_811)"/>
<path d="M98.3473 24C96.5801 24 95.0182 23.6251 93.6616 22.8843C92.305 22.1346 91.2518 21.1171 90.4931 19.8319C89.7345 18.5377 89.3596 17.0651 89.3596 15.405C89.3596 14.084 89.5738 12.8791 90.0022 11.7903C90.4306 10.7014 91.0197 9.7553 91.7784 8.96095C92.537 8.16661 93.4385 7.54184 94.5006 7.1045C95.5537 6.66716 96.714 6.45296 97.9725 6.45296C99.0792 6.45296 100.115 6.66716 101.078 7.09558C102.042 7.52399 102.872 8.10413 103.578 8.836C104.283 9.56787 104.818 10.4425 105.193 11.46C105.568 12.4775 105.746 13.5753 105.72 14.7713L105.684 16.1458H92.0193L91.2875 13.4593H102.39L101.882 14.0037V13.2986C101.819 12.6382 101.605 12.058 101.239 11.5582C100.873 11.0584 100.409 10.6657 99.8468 10.3711C99.2845 10.0855 98.6597 9.94273 97.9725 9.94273C96.9282 9.94273 96.0446 10.148 95.3306 10.5496C94.6166 10.9513 94.0811 11.5404 93.7151 12.2901C93.3492 13.0487 93.1707 13.9948 93.1707 15.1194C93.1707 16.244 93.4028 17.1543 93.8579 17.9665C94.3131 18.7787 94.9647 19.4035 95.8126 19.8408C96.6515 20.2782 97.6422 20.5013 98.7758 20.5013C99.5612 20.5013 100.293 20.3764 100.954 20.1175C101.614 19.8587 102.328 19.4035 103.096 18.743L105.05 21.4652C104.47 22.0007 103.819 22.4559 103.087 22.8219C102.355 23.1967 101.578 23.4913 100.766 23.7055C99.9539 23.9197 99.1506 24.0268 98.3652 24.0268L98.3473 24Z" fill="url(#paint5_linear_411_811)"/>
<path d="M109.557 23.6787V6.81889H113.431L113.493 12.1919L112.949 10.9781C113.181 10.1212 113.592 9.35367 114.163 8.67535C114.743 7.99703 115.403 7.45259 116.162 7.05988C116.921 6.66717 117.715 6.47081 118.545 6.47081C118.911 6.47081 119.25 6.50651 119.589 6.56899C119.92 6.63146 120.196 6.71179 120.402 6.79212L119.348 11.1119C119.116 10.987 118.822 10.8799 118.483 10.7906C118.144 10.7014 117.795 10.6657 117.456 10.6657C116.921 10.6657 116.421 10.7639 115.939 10.9691C115.457 11.1744 115.038 11.4511 114.672 11.817C114.306 12.183 114.029 12.6025 113.824 13.0844C113.618 13.5664 113.52 14.1019 113.52 14.6999V23.6876H109.557V23.6787Z" fill="url(#paint6_linear_411_811)"/>
<mask id="mask0_411_811" style="mask-type:alpha" maskUnits="userSpaceOnUse" x="0" y="0" width="121" height="25">
<path d="M8.98773 24C7.22053 24 5.65861 23.6251 4.30197 22.8843C2.94533 22.1346 1.89215 21.1171 1.13351 19.8319C0.374861 18.5288 0 17.0562 0 15.3871C0 14.0662 0.214206 12.8613 0.642618 11.7724C1.07103 10.6835 1.6601 9.73745 2.41874 8.9431C3.17739 8.14875 4.07884 7.52399 5.14095 7.08665C6.19413 6.64931 7.35441 6.4351 8.61287 6.4351C9.7196 6.4351 10.7549 6.64931 11.7189 7.07772C12.6828 7.50613 13.5128 8.08628 14.2179 8.81815C14.923 9.55002 15.4585 10.4247 15.8334 11.4422C16.2083 12.4596 16.3868 13.5575 16.36 14.7534L16.3243 16.1279H1.43697L0.705095 13.4414H13.0219L12.5132 13.9859V13.2808C12.4507 12.6203 12.2365 12.0402 11.8706 11.5403C11.5047 11.0405 11.0405 10.6478 10.4782 10.3533C9.91595 10.0677 9.29119 9.92488 8.60394 9.92488C7.55969 9.92488 6.67609 10.1302 5.96207 10.5318C5.24805 10.9334 4.71253 11.5225 4.3466 12.2722C3.98066 13.0309 3.80216 13.9769 3.80216 15.1015C3.80216 16.2261 4.03421 17.1365 4.4894 17.9487C4.94459 18.7609 5.59613 19.3856 6.44403 19.823C7.28301 20.2603 8.27371 20.4835 9.40722 20.4835C10.1926 20.4835 10.9245 20.3585 11.585 20.0997C12.2454 19.8408 12.9595 19.3856 13.727 18.7252L15.6817 21.4474C15.1015 21.9829 14.45 22.4381 13.7181 22.804C12.9862 23.1789 12.2097 23.4734 11.3975 23.6876C10.5853 23.9018 9.78208 24.0089 8.99665 24.0089L8.98773 24Z" fill="url(#paint7_linear_411_811)"/>
<path d="M20.1978 23.6787V6.81889H24.0357L24.0982 10.273L23.3663 10.6568C23.5805 9.88918 23.9911 9.19301 24.6158 8.55932C25.2317 7.93455 25.9725 7.42581 26.8204 7.04202C27.6772 6.65824 28.5519 6.46188 29.4444 6.46188C30.7207 6.46188 31.7917 6.72072 32.6575 7.22946C33.5232 7.7382 34.1748 8.50577 34.6121 9.53217C35.0495 10.5586 35.2637 11.8349 35.2637 13.37V23.6698H31.3276V13.6646C31.3276 12.8077 31.2116 12.1026 30.9795 11.5404C30.7475 10.9781 30.3816 10.5586 29.8907 10.2908C29.3998 10.0231 28.8018 9.89811 28.0967 9.92488C27.5255 9.92488 26.99 10.0141 26.5169 10.1926C26.035 10.3711 25.6244 10.63 25.2674 10.9602C24.9193 11.2904 24.6337 11.6653 24.4373 12.0937C24.2321 12.5221 24.1339 12.9862 24.1339 13.5039V23.6787H20.1978Z" fill="url(#paint8_linear_411_811)"/>
<path d="M46.4024 24C45.019 24 43.7605 23.6162 42.627 22.8486C41.4935 22.0811 40.592 21.0368 39.9048 19.7159C39.2265 18.3949 38.8784 16.8866 38.8784 15.2086C38.8784 13.5307 39.2175 12.0223 39.9048 10.7014C40.5831 9.38044 41.5113 8.34511 42.6895 7.59539C43.8587 6.84567 45.1885 6.47974 46.6612 6.47974C47.518 6.47974 48.2945 6.60469 48.9996 6.84567C49.7047 7.09558 50.3206 7.43474 50.8561 7.881C51.3916 8.32726 51.8289 8.84493 52.1859 9.41614C52.5429 9.98736 52.775 10.6121 52.9089 11.2726L52.0431 11.0495V6.8189H56.0059V23.6787H52.0074V19.6445L52.9357 19.4838C52.7839 20.064 52.5162 20.6173 52.1235 21.1618C51.7307 21.7062 51.2399 22.1882 50.6508 22.5987C50.0617 23.0182 49.4102 23.3485 48.6962 23.6073C47.9821 23.8661 47.2146 23.9911 46.4113 23.9911L46.4024 24ZM47.4913 20.5102C48.4106 20.5102 49.2228 20.2871 49.9189 19.8408C50.624 19.3946 51.1685 18.7698 51.5701 17.9665C51.9628 17.1633 52.1592 16.244 52.1592 15.1997C52.1592 14.1555 51.9628 13.2719 51.5701 12.4775C51.1774 11.6921 50.624 11.0673 49.9189 10.6211C49.2138 10.1748 48.4016 9.95166 47.4913 9.95166C46.5809 9.95166 45.7687 10.1748 45.0725 10.6211C44.3763 11.0673 43.8408 11.6921 43.457 12.4775C43.0733 13.2629 42.8769 14.1733 42.8769 15.1997C42.8769 16.2261 43.0733 17.1633 43.457 17.9665C43.8408 18.7698 44.3763 19.3946 45.0725 19.8408C45.7687 20.2871 46.572 20.5102 47.4913 20.5102Z" fill="url(#paint9_linear_411_811)"/>
<path d="M70.2506 24C69.5009 24 68.7691 23.884 68.055 23.6608C67.341 23.4377 66.6984 23.1343 66.1183 22.7505C65.5381 22.3667 65.0651 21.9383 64.6813 21.4563C64.2975 20.9743 64.0387 20.4924 63.9137 20.0015L64.8419 19.582L64.7438 23.6162H60.9327V0H64.8687V10.7192L64.1636 10.3979C64.2707 9.88918 64.5117 9.39829 64.8866 8.9431C65.2614 8.48791 65.7255 8.06843 66.2789 7.69357C66.8323 7.31871 67.4392 7.02417 68.0997 6.80104C68.7601 6.57791 69.4295 6.46188 70.1168 6.46188C71.6341 6.46188 72.9728 6.83674 74.1331 7.57754C75.2934 8.32726 76.2127 9.36259 76.8821 10.6835C77.5515 12.0045 77.8907 13.5128 77.8907 15.1908C77.8907 16.8687 77.5604 18.4128 76.9 19.7337C76.2395 21.0547 75.3291 22.0989 74.1688 22.8576C73.0085 23.6162 71.6965 23.9911 70.2506 23.9911V24ZM69.4206 20.5459C70.3131 20.5459 71.1164 20.3139 71.8215 19.8587C72.5266 19.4035 73.08 18.7698 73.4816 17.9665C73.8832 17.1633 74.0885 16.244 74.0885 15.1997C74.0885 14.1554 73.8921 13.2718 73.4994 12.4775C73.1067 11.6921 72.5534 11.0673 71.8483 10.621C71.1432 10.1748 70.331 9.95166 69.4206 9.95166C68.5102 9.95166 67.6891 10.1748 66.9929 10.621C66.2968 11.0673 65.7345 11.6921 65.3328 12.4775C64.9312 13.2629 64.7259 14.1733 64.7259 15.1997C64.7259 16.2261 64.9312 17.1633 65.3328 17.9665C65.7345 18.7698 66.2968 19.3946 66.9929 19.8587C67.698 20.3139 68.5102 20.5459 69.4206 20.5459Z" fill="url(#paint10_linear_411_811)"/>
<path d="M81.7999 23.6787V0H85.7717V23.6787H81.7999Z" fill="url(#paint11_linear_411_811)"/>
<path d="M98.3473 24C96.5801 24 95.0182 23.6251 93.6616 22.8843C92.305 22.1346 91.2518 21.1171 90.4931 19.8319C89.7345 18.5377 89.3596 17.0651 89.3596 15.405C89.3596 14.084 89.5738 12.8791 90.0022 11.7903C90.4306 10.7014 91.0197 9.7553 91.7784 8.96095C92.537 8.16661 93.4385 7.54184 94.5006 7.1045C95.5537 6.66716 96.714 6.45296 97.9725 6.45296C99.0792 6.45296 100.115 6.66716 101.078 7.09558C102.042 7.52399 102.872 8.10413 103.578 8.836C104.283 9.56787 104.818 10.4425 105.193 11.46C105.568 12.4775 105.746 13.5753 105.72 14.7713L105.684 16.1458H92.0193L91.2875 13.4593H102.39L101.882 14.0037V13.2986C101.819 12.6382 101.605 12.058 101.239 11.5582C100.873 11.0584 100.409 10.6657 99.8468 10.3711C99.2845 10.0855 98.6597 9.94273 97.9725 9.94273C96.9282 9.94273 96.0446 10.148 95.3306 10.5496C94.6166 10.9513 94.0811 11.5404 93.7151 12.2901C93.3492 13.0487 93.1707 13.9948 93.1707 15.1194C93.1707 16.244 93.4028 17.1543 93.8579 17.9665C94.3131 18.7787 94.9647 19.4035 95.8126 19.8408C96.6515 20.2782 97.6422 20.5013 98.7758 20.5013C99.5612 20.5013 100.293 20.3764 100.954 20.1175C101.614 19.8587 102.328 19.4035 103.096 18.743L105.05 21.4652C104.47 22.0007 103.819 22.4559 103.087 22.8219C102.355 23.1967 101.578 23.4913 100.766 23.7055C99.9539 23.9197 99.1506 24.0268 98.3652 24.0268L98.3473 24Z" fill="url(#paint12_linear_411_811)"/>
<path d="M109.557 23.6787V6.81889H113.431L113.493 12.1919L112.949 10.9781C113.181 10.1212 113.592 9.35367 114.163 8.67535C114.743 7.99703 115.403 7.45259 116.162 7.05988C116.921 6.66717 117.715 6.47081 118.545 6.47081C118.911 6.47081 119.25 6.50651 119.589 6.56899C119.92 6.63146 120.196 6.71179 120.402 6.79212L119.348 11.1119C119.116 10.987 118.822 10.8799 118.483 10.7906C118.144 10.7014 117.795 10.6657 117.456 10.6657C116.921 10.6657 116.421 10.7639 115.939 10.9691C115.457 11.1744 115.038 11.4511 114.672 11.817C114.306 12.183 114.029 12.6025 113.824 13.0844C113.618 13.5664 113.52 14.1019 113.52 14.6999V23.6876H109.557V23.6787Z" fill="url(#paint13_linear_411_811)"/>
</mask>
<g mask="url(#mask0_411_811)">
<path style="mix-blend-mode:screen" d="M105.711 49.312C132.945 49.312 155.023 27.2343 155.023 0C155.023 -27.2343 132.945 -49.312 105.711 -49.312C78.4764 -49.312 56.3987 -27.2343 56.3987 0C56.3987 27.2343 78.4764 49.312 105.711 49.312Z" fill="url(#paint14_radial_411_811)"/>
</g>
<defs>
<linearGradient id="paint0_linear_411_811" x1="-13.1023" y1="19.7873" x2="130.246" y2="-10.2194" gradientUnits="userSpaceOnUse">
<stop stop-color="#1B0051"/>
<stop offset="0.44" stop-color="#3A0079"/>
<stop offset="0.79" stop-color="#4F0093"/>
<stop offset="1" stop-color="#57009D"/>
</linearGradient>
<linearGradient id="paint1_linear_411_811" x1="-12.299" y1="23.6251" x2="131.049" y2="-6.38155" gradientUnits="userSpaceOnUse">
<stop stop-color="#1B0051"/>
<stop offset="0.44" stop-color="#3A0079"/>
<stop offset="0.79" stop-color="#4F0093"/>
<stop offset="1" stop-color="#57009D"/>
</linearGradient>
<linearGradient id="paint2_linear_411_811" x1="-11.3618" y1="28.1056" x2="131.987" y2="-1.90107" gradientUnits="userSpaceOnUse">
<stop stop-color="#1B0051"/>
<stop offset="0.44" stop-color="#3A0079"/>
<stop offset="0.79" stop-color="#4F0093"/>
<stop offset="1" stop-color="#57009D"/>
</linearGradient>
<linearGradient id="paint3_linear_411_811" x1="-11.344" y1="28.1859" x2="132.004" y2="-1.82075" gradientUnits="userSpaceOnUse">
<stop stop-color="#1B0051"/>
<stop offset="0.44" stop-color="#3A0079"/>
<stop offset="0.79" stop-color="#4F0093"/>
<stop offset="1" stop-color="#57009D"/>
</linearGradient>
<linearGradient id="paint4_linear_411_811" x1="-10.6299" y1="31.6043" x2="132.718" y2="1.59766" gradientUnits="userSpaceOnUse">
<stop stop-color="#1B0051"/>
<stop offset="0.44" stop-color="#3A0079"/>
<stop offset="0.79" stop-color="#4F0093"/>
<stop offset="1" stop-color="#57009D"/>
</linearGradient>
<linearGradient id="paint5_linear_411_811" x1="-9.35363" y1="37.7092" x2="133.995" y2="7.70251" gradientUnits="userSpaceOnUse">
<stop stop-color="#1B0051"/>
<stop offset="0.44" stop-color="#3A0079"/>
<stop offset="0.79" stop-color="#4F0093"/>
<stop offset="1" stop-color="#57009D"/>
</linearGradient>
<linearGradient id="paint6_linear_411_811" x1="-8.78239" y1="40.4314" x2="134.566" y2="10.4247" gradientUnits="userSpaceOnUse">
<stop stop-color="#1B0051"/>
<stop offset="0.44" stop-color="#3A0079"/>
<stop offset="0.79" stop-color="#4F0093"/>
<stop offset="1" stop-color="#57009D"/>
</linearGradient>
<linearGradient id="paint7_linear_411_811" x1="-13.1023" y1="19.7873" x2="130.246" y2="-10.2194" gradientUnits="userSpaceOnUse">
<stop stop-color="#1B0051"/>
<stop offset="0.44" stop-color="#3A0079"/>
<stop offset="0.79" stop-color="#4F0093"/>
<stop offset="1" stop-color="#57009D"/>
</linearGradient>
<linearGradient id="paint8_linear_411_811" x1="-12.299" y1="23.6251" x2="131.049" y2="-6.38155" gradientUnits="userSpaceOnUse">
<stop stop-color="#1B0051"/>
<stop offset="0.44" stop-color="#3A0079"/>
<stop offset="0.79" stop-color="#4F0093"/>
<stop offset="1" stop-color="#57009D"/>
</linearGradient>
<linearGradient id="paint9_linear_411_811" x1="-11.3618" y1="28.1056" x2="131.987" y2="-1.90107" gradientUnits="userSpaceOnUse">
<stop stop-color="#1B0051"/>
<stop offset="0.44" stop-color="#3A0079"/>
<stop offset="0.79" stop-color="#4F0093"/>
<stop offset="1" stop-color="#57009D"/>
</linearGradient>
<linearGradient id="paint10_linear_411_811" x1="-11.344" y1="28.1859" x2="132.004" y2="-1.82075" gradientUnits="userSpaceOnUse">
<stop stop-color="#1B0051"/>
<stop offset="0.44" stop-color="#3A0079"/>
<stop offset="0.79" stop-color="#4F0093"/>
<stop offset="1" stop-color="#57009D"/>
</linearGradient>
<linearGradient id="paint11_linear_411_811" x1="-10.6299" y1="31.6043" x2="132.718" y2="1.59766" gradientUnits="userSpaceOnUse">
<stop stop-color="#1B0051"/>
<stop offset="0.44" stop-color="#3A0079"/>
<stop offset="0.79" stop-color="#4F0093"/>
<stop offset="1" stop-color="#57009D"/>
</linearGradient>
<linearGradient id="paint12_linear_411_811" x1="-9.35363" y1="37.7092" x2="133.995" y2="7.70251" gradientUnits="userSpaceOnUse">
<stop stop-color="#1B0051"/>
<stop offset="0.44" stop-color="#3A0079"/>
<stop offset="0.79" stop-color="#4F0093"/>
<stop offset="1" stop-color="#57009D"/>
</linearGradient>
<linearGradient id="paint13_linear_411_811" x1="-8.78239" y1="40.4314" x2="134.566" y2="10.4247" gradientUnits="userSpaceOnUse">
<stop stop-color="#1B0051"/>
<stop offset="0.44" stop-color="#3A0079"/>
<stop offset="0.79" stop-color="#4F0093"/>
<stop offset="1" stop-color="#57009D"/>
</linearGradient>
<radialGradient id="paint14_radial_411_811" cx="0" cy="0" r="1" gradientUnits="userSpaceOnUse" gradientTransform="translate(105.711) scale(49.312)">
<stop stop-color="#2663FF"/>
<stop offset="0.13" stop-color="#2663FF" stop-opacity="0.84"/>
<stop offset="0.37" stop-color="#2663FF" stop-opacity="0.54"/>
<stop offset="0.59" stop-color="#2663FF" stop-opacity="0.31"/>
<stop offset="0.77" stop-color="#2663FF" stop-opacity="0.14"/>
<stop offset="0.92" stop-color="#2663FF" stop-opacity="0.04"/>
<stop offset="1" stop-color="#2663FF" stop-opacity="0"/>
</radialGradient>
</defs>
</svg>
